<svg width="206" height="214" viewBox="0 0 206 214" fill="none" xmlns="http://www.w3.org/2000/svg">
<rect width="206" height="214" fill="white"/>
<g filter="url(#filter0_d_1_9)">
<path d="M175 63.8902C175 51.2528 164.719 40.9717 152.081 40.9717C149.897 40.9717 147.137 41.1529 144.444 41.8296C140.012 35.8822 132.641 32 125.167 32C120.295 32 115.591 33.5562 111.71 36.3726C107.829 33.5562 103.125 32 98.2534 32C90.4342 32 83.2805 35.9874 79.1073 42.3225C76.6348 41.4318 74.0138 40.9712 71.3394 40.9712C58.7021 40.9712 48.4209 51.2528 48.4209 63.8897C48.4209 74.2701 55.3601 83.0555 64.8418 85.8648V89.4721H53.3966C41.5985 89.4721 32 99.7407 32 112.362V134.007C32 146.628 41.5985 156.897 53.3966 156.897H64.8413V158.639C64.8413 171.259 75.1093 181.528 87.7306 181.528H134.007C146.628 181.528 156.897 171.259 156.897 158.639V86.2957C167.229 84.077 175 74.8747 175 63.8902ZM53.3966 146.945C47.0857 146.945 41.9519 141.142 41.9519 134.008V112.362C41.9519 105.228 47.0857 99.425 53.3966 99.425H64.8413V146.946H53.3966V146.945ZM134.008 171.576H87.7311C80.5971 171.576 74.7937 165.773 74.7937 158.639V86.5445C76.2673 86.3209 77.7112 85.9604 79.1073 85.4575C83.2805 91.792 90.4342 95.7804 98.2534 95.7804C107.306 95.7804 115.15 90.5047 118.871 82.8672C123.477 85.678 129.166 86.8088 134.139 86.8088C137.229 86.8088 140.283 86.1815 143.11 84.9787C144.349 85.5063 145.634 85.9156 146.945 86.2177V158.639C146.945 165.773 141.142 171.576 134.008 171.576ZM152.081 76.8569C149.805 76.8569 147.565 76.2562 145.603 75.1199C144.06 74.2273 142.159 74.2273 140.617 75.1199C138.654 76.2562 136.414 76.8569 134.139 76.8569C128.825 76.8569 122.619 74.9875 120.73 70.8113C119.764 68.6756 117.44 67.5015 115.148 67.9975C112.856 68.4908 111.22 70.5173 111.22 72.8614C111.22 80.011 105.403 85.828 98.2534 85.828C92.7541 85.828 87.8368 82.3421 86.0168 77.1539C85.5068 75.7009 84.3539 74.5656 82.8928 74.0798C82.3798 73.9086 81.8497 73.825 81.322 73.825C80.3463 73.825 79.3797 74.1115 78.5495 74.6688C76.4148 76.1002 73.9217 76.8574 71.3394 76.8574C64.1893 76.8574 58.3728 71.0404 58.3728 63.8907C58.3728 56.7406 64.1893 50.9236 71.3394 50.9236C73.9222 50.9236 76.4148 51.6803 78.549 53.1126C79.8278 53.97 81.4308 54.188 82.8928 53.7017C84.3534 53.2153 85.5068 52.08 86.0168 50.6276C87.8363 45.4389 92.7541 41.9529 98.2534 41.9529C101.969 41.9529 105.514 43.5554 107.979 46.3491C108.923 47.42 110.282 48.0337 111.71 48.0337C113.138 48.0337 114.497 47.42 115.442 46.3491C117.907 43.5549 121.451 41.9529 125.167 41.9529C130.285 41.9529 135.707 45.4107 137.78 49.9962C138.36 51.2775 139.454 52.2537 140.793 52.6837C142.132 53.1126 143.591 52.9571 144.807 52.2527C146.244 51.421 148.964 50.9236 152.08 50.9236C159.231 50.9236 165.048 56.7406 165.048 63.8907C165.048 71.0399 159.231 76.8569 152.081 76.8569Z" fill="#FFCA41"/>
<path d="M131.395 97.683C128.647 97.683 126.419 99.9113 126.419 102.659V151.921C126.419 154.669 128.647 156.897 131.395 156.897C134.143 156.897 136.371 154.669 136.371 151.921V102.659C136.371 99.9113 134.143 97.683 131.395 97.683Z" fill="#FFCA41"/>
<path d="M110.869 97.683C108.121 97.683 105.893 99.9113 105.893 102.659V151.921C105.893 154.669 108.121 156.897 110.869 156.897C113.618 156.897 115.845 154.669 115.845 151.921V102.659C115.845 99.9113 113.618 97.683 110.869 97.683Z" fill="#FFCA41"/>
<path d="M90.3431 97.683C87.5952 97.683 85.3674 99.9113 85.3674 102.659V151.921C85.3674 154.669 87.5952 156.897 90.3431 156.897C93.0915 156.897 95.3193 154.669 95.3193 151.921V102.659C95.3193 99.9113 93.0915 97.683 90.3431 97.683Z" fill="#FFCA41"/>
</g>
<defs>
<filter id="filter0_d_1_9" x="28" y="32" width="151" height="157.528" filterUnits="userSpaceOnUse" color-interpolation-filters="sRGB">
<feFlood flood-opacity="0" result="BackgroundImageFix"/>
<feColorMatrix in="SourceAlpha" type="matrix" values="0 0 0 0 0 0 0 0 0 0 0 0 0 0 0 0 0 0 127 0" result="hardAlpha"/>
<feOffset dy="4"/>
<feGaussianBlur stdDeviation="2"/>
<feComposite in2="hardAlpha" operator="out"/>
<feColorMatrix type="matrix" values="0 0 0 0 0 0 0 0 0 0 0 0 0 0 0 0 0 0 0.05 0"/>
<feBlend mode="normal" in2="BackgroundImageFix" result="effect1_dropShadow_1_9"/>
<feBlend mode="normal" in="SourceGraphic" in2="effect1_dropShadow_1_9" result="shape"/>
</filter>
</defs>
</svg>
